<?xml version="1.0" encoding="UTF-8" standalone="no"?>
<!DOCTYPE svg PUBLIC "-//W3C//DTD SVG 1.1//EN"
 "http://www.w3.org/Graphics/SVG/1.1/DTD/svg11.dtd">
<!-- Generated by graphviz version 2.40.1 (20161225.0304)
 -->
<!-- Title: dependencies Pages: 1 -->
<svg width="504pt" height="284pt"
 viewBox="0.00 0.00 504.00 284.00" xmlns="http://www.w3.org/2000/svg" xmlns:xlink="http://www.w3.org/1999/xlink">
<g id="graph0" class="graph" transform="scale(1 1) rotate(0) translate(4 280)">
<title>dependencies</title>
<polygon fill="#ffffff" stroke="transparent" points="-4,4 -4,-280 500,-280 500,4 -4,4"/>
<text text-anchor="start" x="227.0091" y="-42.4" font-family="sans-serif" font-weight="bold" font-size="14.00" fill="#000000">Legend</text>
<polygon fill="#ffffb3" stroke="transparent" points="14,-10 14,-30 34,-30 34,-10 14,-10"/>
<text text-anchor="start" x="37.629" y="-15.4" font-family="sans-serif" font-size="14.00" fill="#000000"> &#160;Declarations</text>
<polygon fill="#8dd3c7" stroke="transparent" points="127,-10 127,-30 147,-30 147,-10 127,-10"/>
<text text-anchor="start" x="150.7251" y="-15.4" font-family="sans-serif" font-size="14.00" fill="#000000"> &#160;Module</text>
<polygon fill="#80b1d3" stroke="transparent" points="213,-10 213,-30 233,-30 233,-10 213,-10"/>
<text text-anchor="start" x="236.7812" y="-15.4" font-family="sans-serif" font-size="14.00" fill="#000000"> &#160;Bootstrap</text>
<polygon fill="#fdb462" stroke="transparent" points="310,-10 310,-30 330,-30 330,-10 310,-10"/>
<text text-anchor="start" x="333.6732" y="-15.4" font-family="sans-serif" font-size="14.00" fill="#000000"> &#160;Providers</text>
<polygon fill="#fb8072" stroke="transparent" points="406,-10 406,-30 426,-30 426,-10 406,-10"/>
<text text-anchor="start" x="429.7258" y="-15.4" font-family="sans-serif" font-size="14.00" fill="#000000"> &#160;Exports</text>
<g id="clust1" class="cluster">
<title>cluster_SpiModule</title>
<polygon fill="none" stroke="#000000" stroke-dasharray="1,5" points="15.5,-70 15.5,-268 480.5,-268 480.5,-70 15.5,-70"/>
</g>
<g id="clust3" class="cluster">
<title>cluster_SpiModule_imports</title>
<polygon fill="none" stroke="#000000" points="163.5,-78 163.5,-130 291.5,-130 291.5,-78 163.5,-78"/>
</g>
<g id="clust4" class="cluster">
<title>cluster_SpiModule_exports</title>
<polygon fill="none" stroke="#000000" points="23.5,-208 23.5,-260 472.5,-260 472.5,-208 23.5,-208"/>
</g>
<!-- CommonModule -->
<g id="node1" class="node">
<title>CommonModule</title>
<polygon fill="#8dd3c7" stroke="#000000" points="283.1681,-122 280.1681,-126 259.1681,-126 256.1681,-122 171.8319,-122 171.8319,-86 283.1681,-86 283.1681,-122"/>
<text text-anchor="middle" x="227.5" y="-99.8" font-family="Times,serif" font-size="14.00" fill="#000000">CommonModule</text>
</g>
<!-- SpiModule -->
<g id="node2" class="node">
<title>SpiModule</title>
<polygon fill="#8dd3c7" stroke="#000000" points="266.7233,-187 263.7233,-191 242.7233,-191 239.7233,-187 188.2767,-187 188.2767,-151 266.7233,-151 266.7233,-187"/>
<text text-anchor="middle" x="227.5" y="-164.8" font-family="Times,serif" font-size="14.00" fill="#000000">SpiModule</text>
</g>
<!-- CommonModule&#45;&gt;SpiModule -->
<g id="edge1" class="edge">
<title>CommonModule&#45;&gt;SpiModule</title>
<path fill="none" stroke="#000000" d="M227.5,-122.1061C227.5,-122.1061 227.5,-140.991 227.5,-140.991"/>
<polygon fill="#000000" stroke="#000000" points="224.0001,-140.9909 227.5,-150.991 231.0001,-140.991 224.0001,-140.9909"/>
</g>
<!-- SpiLoadingComponent  -->
<g id="node3" class="node">
<title>SpiLoadingComponent </title>
<polygon fill="#fb8072" stroke="#000000" points="464.6635,-252 314.3365,-252 314.3365,-216 464.6635,-216 464.6635,-252"/>
<text text-anchor="middle" x="389.5" y="-229.8" font-family="Times,serif" font-size="14.00" fill="#000000">SpiLoadingComponent </text>
</g>
<!-- SpiModule&#45;&gt;SpiLoadingComponent  -->
<g id="edge2" class="edge">
<title>SpiModule&#45;&gt;SpiLoadingComponent </title>
<path fill="none" stroke="#000000" stroke-dasharray="5,2" d="M266.7157,-169C314.66,-169 389.5,-169 389.5,-169 389.5,-169 389.5,-205.8939 389.5,-205.8939"/>
<polygon fill="#000000" stroke="#000000" points="386.0001,-205.8938 389.5,-215.8939 393.0001,-205.8939 386.0001,-205.8938"/>
</g>
<!-- SpiLoadingDirective  -->
<g id="node4" class="node">
<title>SpiLoadingDirective </title>
<polygon fill="#fb8072" stroke="#000000" points="295.9138,-252 159.0862,-252 159.0862,-216 295.9138,-216 295.9138,-252"/>
<text text-anchor="middle" x="227.5" y="-229.8" font-family="Times,serif" font-size="14.00" fill="#000000">SpiLoadingDirective </text>
</g>
<!-- SpiModule&#45;&gt;SpiLoadingDirective  -->
<g id="edge3" class="edge">
<title>SpiModule&#45;&gt;SpiLoadingDirective </title>
<path fill="none" stroke="#000000" stroke-dasharray="5,2" d="M227.5,-187.1061C227.5,-187.1061 227.5,-205.991 227.5,-205.991"/>
<polygon fill="#000000" stroke="#000000" points="224.0001,-205.9909 227.5,-215.991 231.0001,-205.991 224.0001,-205.9909"/>
</g>
<!-- SpiLoadingPipe  -->
<g id="node5" class="node">
<title>SpiLoadingPipe </title>
<polygon fill="#fb8072" stroke="#000000" points="141.2192,-252 31.7808,-252 31.7808,-216 141.2192,-216 141.2192,-252"/>
<text text-anchor="middle" x="86.5" y="-229.8" font-family="Times,serif" font-size="14.00" fill="#000000">SpiLoadingPipe </text>
</g>
<!-- SpiModule&#45;&gt;SpiLoadingPipe  -->
<g id="edge4" class="edge">
<title>SpiModule&#45;&gt;SpiLoadingPipe </title>
<path fill="none" stroke="#000000" stroke-dasharray="5,2" d="M188.2236,-169C146.5029,-169 86.5,-169 86.5,-169 86.5,-169 86.5,-205.8939 86.5,-205.8939"/>
<polygon fill="#000000" stroke="#000000" points="83.0001,-205.8938 86.5,-215.8939 90.0001,-205.8939 83.0001,-205.8938"/>
</g>
</g>
</svg>
