<?xml version="1.0" encoding="UTF-8" standalone="no"?>
<!DOCTYPE svg PUBLIC "-//W3C//DTD SVG 1.1//EN"
 "http://www.w3.org/Graphics/SVG/1.1/DTD/svg11.dtd">
<!-- Generated by graphviz version 2.40.1 (20161225.0304)
 -->
<!-- Title: dependencies Pages: 1 -->
<svg width="614pt" height="284pt"
 viewBox="0.00 0.00 614.00 284.00" xmlns="http://www.w3.org/2000/svg" xmlns:xlink="http://www.w3.org/1999/xlink">
<g id="graph0" class="graph" transform="scale(1 1) rotate(0) translate(4 280)">
<title>dependencies</title>
<polygon fill="#ffffff" stroke="transparent" points="-4,4 -4,-280 610,-280 610,4 -4,4"/>
<text text-anchor="start" x="282.0091" y="-42.4" font-family="sans-serif" font-weight="bold" font-size="14.00" fill="#000000">Legend</text>
<polygon fill="#ffffb3" stroke="transparent" points="69,-10 69,-30 89,-30 89,-10 69,-10"/>
<text text-anchor="start" x="92.629" y="-15.4" font-family="sans-serif" font-size="14.00" fill="#000000"> &#160;Declarations</text>
<polygon fill="#8dd3c7" stroke="transparent" points="182,-10 182,-30 202,-30 202,-10 182,-10"/>
<text text-anchor="start" x="205.7251" y="-15.4" font-family="sans-serif" font-size="14.00" fill="#000000"> &#160;Module</text>
<polygon fill="#80b1d3" stroke="transparent" points="268,-10 268,-30 288,-30 288,-10 268,-10"/>
<text text-anchor="start" x="291.7812" y="-15.4" font-family="sans-serif" font-size="14.00" fill="#000000"> &#160;Bootstrap</text>
<polygon fill="#fdb462" stroke="transparent" points="365,-10 365,-30 385,-30 385,-10 365,-10"/>
<text text-anchor="start" x="388.6732" y="-15.4" font-family="sans-serif" font-size="14.00" fill="#000000"> &#160;Providers</text>
<polygon fill="#fb8072" stroke="transparent" points="461,-10 461,-30 481,-30 481,-10 461,-10"/>
<text text-anchor="start" x="484.7258" y="-15.4" font-family="sans-serif" font-size="14.00" fill="#000000"> &#160;Exports</text>
<g id="clust1" class="cluster">
<title>cluster_SpiModule</title>
<polygon fill="none" stroke="#000000" stroke-dasharray="1,5" points="8,-70 8,-268 598,-268 598,-70 8,-70"/>
</g>
<g id="clust2" class="cluster">
<title>cluster_SpiModule_declarations</title>
<polygon fill="none" stroke="#000000" points="152,-78 152,-130 590,-130 590,-78 152,-78"/>
</g>
<g id="clust6" class="cluster">
<title>cluster_SpiModule_imports</title>
<polygon fill="none" stroke="#000000" points="16,-78 16,-130 144,-130 144,-78 16,-78"/>
</g>
<g id="clust7" class="cluster">
<title>cluster_SpiModule_exports</title>
<polygon fill="none" stroke="#000000" points="78,-208 78,-260 527,-260 527,-208 78,-208"/>
</g>
<!-- SpiLoadingComponent -->
<g id="node1" class="node">
<title>SpiLoadingComponent</title>
<polygon fill="#ffffb3" stroke="#000000" points="582.1638,-122 435.8362,-122 435.8362,-86 582.1638,-86 582.1638,-122"/>
<text text-anchor="middle" x="509" y="-99.8" font-family="Times,serif" font-size="14.00" fill="#000000">SpiLoadingComponent</text>
</g>
<!-- SpiModule -->
<g id="node4" class="node">
<title>SpiModule</title>
<polygon fill="#8dd3c7" stroke="#000000" points="321.2233,-187 318.2233,-191 297.2233,-191 294.2233,-187 242.7767,-187 242.7767,-151 321.2233,-151 321.2233,-187"/>
<text text-anchor="middle" x="282" y="-164.8" font-family="Times,serif" font-size="14.00" fill="#000000">SpiModule</text>
</g>
<!-- SpiLoadingComponent&#45;&gt;SpiModule -->
<g id="edge1" class="edge">
<title>SpiLoadingComponent&#45;&gt;SpiModule</title>
<path fill="none" stroke="#000000" d="M477.375,-122.0225C477.375,-139.3734 477.375,-163 477.375,-163 477.375,-163 331.537,-163 331.537,-163"/>
<polygon fill="#000000" stroke="#000000" points="331.5371,-159.5001 321.537,-163 331.537,-166.5001 331.5371,-159.5001"/>
</g>
<!-- SpiLoadingDirective -->
<g id="node2" class="node">
<title>SpiLoadingDirective</title>
<polygon fill="#ffffb3" stroke="#000000" points="417.9144,-122 284.0856,-122 284.0856,-86 417.9144,-86 417.9144,-122"/>
<text text-anchor="middle" x="351" y="-99.8" font-family="Times,serif" font-size="14.00" fill="#000000">SpiLoadingDirective</text>
</g>
<!-- SpiLoadingDirective&#45;&gt;SpiModule -->
<g id="edge2" class="edge">
<title>SpiLoadingDirective&#45;&gt;SpiModule</title>
<path fill="none" stroke="#000000" d="M302.7023,-122.1061C302.7023,-122.1061 302.7023,-140.991 302.7023,-140.991"/>
<polygon fill="#000000" stroke="#000000" points="299.2024,-140.9909 302.7023,-150.991 306.2024,-140.991 299.2024,-140.9909"/>
</g>
<!-- SpiLoadingPipe -->
<g id="node3" class="node">
<title>SpiLoadingPipe</title>
<polygon fill="#ffffb3" stroke="#000000" points="266.219,-122 159.781,-122 159.781,-86 266.219,-86 266.219,-122"/>
<text text-anchor="middle" x="213" y="-99.8" font-family="Times,serif" font-size="14.00" fill="#000000">SpiLoadingPipe</text>
</g>
<!-- SpiLoadingPipe&#45;&gt;SpiModule -->
<g id="edge3" class="edge">
<title>SpiLoadingPipe&#45;&gt;SpiModule</title>
<path fill="none" stroke="#000000" d="M254.499,-122.1061C254.499,-122.1061 254.499,-140.991 254.499,-140.991"/>
<polygon fill="#000000" stroke="#000000" points="250.999,-140.9909 254.499,-150.991 257.999,-140.991 250.999,-140.9909"/>
</g>
<!-- SpiLoadingComponent  -->
<g id="node6" class="node">
<title>SpiLoadingComponent </title>
<polygon fill="#fb8072" stroke="#000000" points="519.1635,-252 368.8365,-252 368.8365,-216 519.1635,-216 519.1635,-252"/>
<text text-anchor="middle" x="444" y="-229.8" font-family="Times,serif" font-size="14.00" fill="#000000">SpiLoadingComponent </text>
</g>
<!-- SpiModule&#45;&gt;SpiLoadingComponent  -->
<g id="edge5" class="edge">
<title>SpiModule&#45;&gt;SpiLoadingComponent </title>
<path fill="none" stroke="#000000" stroke-dasharray="5,2" d="M321.2447,-175C353.2922,-175 393.3126,-175 393.3126,-175 393.3126,-175 393.3126,-205.9775 393.3126,-205.9775"/>
<polygon fill="#000000" stroke="#000000" points="389.8127,-205.9774 393.3126,-215.9775 396.8127,-205.9775 389.8127,-205.9774"/>
</g>
<!-- SpiLoadingDirective  -->
<g id="node7" class="node">
<title>SpiLoadingDirective </title>
<polygon fill="#fb8072" stroke="#000000" points="350.4138,-252 213.5862,-252 213.5862,-216 350.4138,-216 350.4138,-252"/>
<text text-anchor="middle" x="282" y="-229.8" font-family="Times,serif" font-size="14.00" fill="#000000">SpiLoadingDirective </text>
</g>
<!-- SpiModule&#45;&gt;SpiLoadingDirective  -->
<g id="edge6" class="edge">
<title>SpiModule&#45;&gt;SpiLoadingDirective </title>
<path fill="none" stroke="#000000" stroke-dasharray="5,2" d="M282,-187.1061C282,-187.1061 282,-205.991 282,-205.991"/>
<polygon fill="#000000" stroke="#000000" points="278.5001,-205.9909 282,-215.991 285.5001,-205.991 278.5001,-205.9909"/>
</g>
<!-- SpiLoadingPipe  -->
<g id="node8" class="node">
<title>SpiLoadingPipe </title>
<polygon fill="#fb8072" stroke="#000000" points="195.7192,-252 86.2808,-252 86.2808,-216 195.7192,-216 195.7192,-252"/>
<text text-anchor="middle" x="141" y="-229.8" font-family="Times,serif" font-size="14.00" fill="#000000">SpiLoadingPipe </text>
</g>
<!-- SpiModule&#45;&gt;SpiLoadingPipe  -->
<g id="edge7" class="edge">
<title>SpiModule&#45;&gt;SpiLoadingPipe </title>
<path fill="none" stroke="#000000" stroke-dasharray="5,2" d="M242.6348,-175C213.1484,-175 177.875,-175 177.875,-175 177.875,-175 177.875,-205.9775 177.875,-205.9775"/>
<polygon fill="#000000" stroke="#000000" points="174.3751,-205.9774 177.875,-215.9775 181.3751,-205.9775 174.3751,-205.9774"/>
</g>
<!-- CommonModule -->
<g id="node5" class="node">
<title>CommonModule</title>
<polygon fill="#8dd3c7" stroke="#000000" points="135.6681,-122 132.6681,-126 111.6681,-126 108.6681,-122 24.3319,-122 24.3319,-86 135.6681,-86 135.6681,-122"/>
<text text-anchor="middle" x="80" y="-99.8" font-family="Times,serif" font-size="14.00" fill="#000000">CommonModule</text>
</g>
<!-- CommonModule&#45;&gt;SpiModule -->
<g id="edge4" class="edge">
<title>CommonModule&#45;&gt;SpiModule</title>
<path fill="none" stroke="#000000" d="M110.9872,-122.0225C110.9872,-139.3734 110.9872,-163 110.9872,-163 110.9872,-163 232.7662,-163 232.7662,-163"/>
<polygon fill="#000000" stroke="#000000" points="232.7662,-166.5001 242.7662,-163 232.7662,-159.5001 232.7662,-166.5001"/>
</g>
</g>
</svg>
